<svg width="25" height="25" viewBox="0 0 25 25" fill="none" xmlns="http://www.w3.org/2000/svg">
<path fill-rule="evenodd" clip-rule="evenodd" d="M11.646 4.47387C11.1839 4.54106 10.7396 4.69901 10.3388 4.93862C9.938 5.17823 9.58856 5.49476 9.31061 5.86999C9.03265 6.24522 8.83168 6.67173 8.71926 7.12496C8.60685 7.57819 8.5852 8.04919 8.65558 8.51082L8.68877 8.7354C8.73303 9.0153 8.80604 9.28856 8.90893 9.55186L9.92121 12.1429C12.3433 11.9783 14.7742 11.9928 17.1941 12.186L18.8492 12.3188C19.3695 12.3604 19.8609 12.575 20.2449 12.9286C20.6289 13.2821 20.8834 13.7541 20.9678 14.2692C21.3678 16.7126 21.3678 19.2049 20.9678 21.6483C20.8836 22.1636 20.6292 22.6359 20.2452 22.9896C19.8611 23.3433 19.3696 23.5582 18.8492 23.5999L17.1941 23.7326C14.5807 23.9412 11.9549 23.9412 9.3415 23.7326L7.68645 23.5999C7.16599 23.5582 6.67449 23.3433 6.29046 22.9896C5.90643 22.6359 5.65202 22.1636 5.56786 21.6483C5.16781 19.2049 5.16781 16.7126 5.56786 14.2692C5.65184 13.7535 5.90632 13.2809 6.29059 12.9269C6.67487 12.5729 7.16674 12.358 7.68756 12.3165L8.19315 12.2767L7.36341 10.1548C7.21669 9.77806 7.11206 9.38626 7.05143 8.98653L7.01713 8.76084C6.82469 7.49593 7.10537 6.20446 7.80549 5.13353C8.50561 4.06261 9.576 3.28741 10.8119 2.95625C12.0477 2.6251 13.3623 2.76124 14.5041 3.33862C15.6459 3.91601 16.5347 4.8941 17.0005 6.08577L17.0835 6.29929C17.2306 6.67544 17.3357 7.06818 17.3966 7.46867L17.5526 8.49533C17.5636 8.56718 17.5603 8.64049 17.543 8.71107C17.5256 8.78166 17.4945 8.84813 17.4515 8.90669C17.4084 8.96526 17.3543 9.01476 17.2921 9.05238C17.2299 9.09 17.1609 9.11499 17.089 9.12593L16.5425 9.2089C16.4707 9.2199 16.3974 9.21664 16.3268 9.1993C16.2562 9.18195 16.1897 9.15087 16.1311 9.10782C16.0726 9.06477 16.0231 9.0106 15.9855 8.9484C15.9478 8.88621 15.9228 8.81721 15.9119 8.74536L15.757 7.71869C15.7144 7.43929 15.6409 7.16546 15.538 6.90223L15.455 6.68982C15.1639 5.94472 14.629 5.32018 13.9375 4.91798C13.246 4.51577 12.4387 4.35963 11.6471 4.47498M13.2689 16.2993C12.8288 16.2993 12.4067 16.4741 12.0955 16.7853C11.7843 17.0965 11.6094 17.5186 11.6094 17.9588C11.6094 18.3989 11.7843 18.821 12.0955 19.1322C12.4067 19.4434 12.8288 19.6182 13.2689 19.6182C13.709 19.6182 14.1311 19.4434 14.4423 19.1322C14.7536 18.821 14.9284 18.3989 14.9284 17.9588C14.9284 17.5186 14.7536 17.0965 14.4423 16.7853C14.1311 16.4741 13.709 16.2993 13.2689 16.2993Z" fill="white"/>
</svg>
